<svg xmlns="http://www.w3.org/2000/svg" xmlns:xlink="http://www.w3.org/1999/xlink" viewBox="0 0 3080 800"><defs><style>.cls-1{fill:none;}.cls-2{clip-path:url(#clip-path);}.cls-3{fill:#b0ae68;}.cls-4{fill:#3477ab;}.cls-5{fill:#3678aa;}.cls-6{fill:#3879a9;}.cls-7{fill:#3c7ba7;}.cls-8{fill:#4980a0;}.cls-9{fill:#50849c;}.cls-10{fill:#3b7aa7;}.cls-11{fill:#4880a0;}.cls-12{fill:#688e8f;}.cls-13{fill:#3c7aa7;}.cls-14{fill:#769487;}.cls-15{fill:#417da4;}.cls-16{fill:#759488;}.cls-17{fill:#839a81;}.cls-18{fill:#5c8996;}.cls-19{fill:#889c7e;}.cls-20{fill:#9da673;}.cls-21{fill:#9ca573;}.cls-22{fill:#b1af68;}.cls-23{fill:#c9b95b;}.cls-24{fill:#afad69;}.cls-25{fill:#698e8f;}.cls-26{fill:#9ba474;}.cls-27{fill:#c8b95c;}.cls-28{fill:#e6c64c;}.cls-29{fill:#51849b;}.cls-30{fill:#698f8e;}.cls-31{fill:#779587;}.cls-32{fill:#fff;}.cls-33{fill:#2e3945;}</style><clipPath id="clip-path"><path class="cls-1" d="M800,0V672A128,128,0,0,1,672,800H0V128A128,128,0,0,1,128,0Z"/></clipPath></defs><title>spykesim_wtext</title><g id="logo"><g class="cls-2"><rect class="cls-3" x="500" y="700" width="100" height="100"/><rect class="cls-4" width="100" height="100"/><rect class="cls-1" width="100" height="100"/><rect class="cls-5" x="100" width="100" height="100"/><rect class="cls-6" x="200" width="100" height="100"/><rect class="cls-7" x="300" width="100" height="100"/><rect class="cls-8" x="500" width="100" height="100"/><rect class="cls-9" x="600" width="100" height="100"/><rect class="cls-1" y="100" width="100" height="100"/><rect class="cls-6" x="100" y="100" width="100" height="100"/><rect class="cls-10" x="200" y="100" width="100" height="100"/><rect class="cls-11" x="400" y="100" width="100" height="100"/><rect class="cls-1" x="500" y="100" width="100" height="100"/><rect class="cls-12" x="700" y="100" width="100" height="100"/><rect class="cls-1" y="200" width="100" height="100"/><rect class="cls-13" x="100" y="200" width="100" height="100"/><rect class="cls-11" x="300" y="200" width="100" height="100"/><rect class="cls-1" x="400" y="200" width="100" height="100"/><rect class="cls-12" x="600" y="200" width="100" height="100"/><rect class="cls-14" x="700" y="200" width="100" height="100"/><rect class="cls-7" y="300" width="100" height="100"/><rect class="cls-15" x="100" y="300" width="100" height="100"/><rect class="cls-16" x="600" y="300" width="100" height="100"/><rect class="cls-17" x="700" y="300" width="100" height="100"/><rect class="cls-15" y="400" width="100" height="100"/><rect class="cls-11" x="100" y="400" width="100" height="100"/><rect class="cls-18" x="300" y="400" width="100" height="100"/><rect class="cls-1" x="400" y="400" width="100" height="100"/><rect class="cls-19" x="600" y="400" width="100" height="100"/><rect class="cls-1" x="700" y="400" width="100" height="100"/><rect class="cls-11" y="500" width="100" height="100"/><rect class="cls-9" x="100" y="500" width="100" height="100"/><rect class="cls-12" x="300" y="500" width="100" height="100"/><rect class="cls-1" x="400" y="500" width="100" height="100"/><rect class="cls-20" x="600" y="500" width="100" height="100"/><rect class="cls-1" x="700" y="500" width="100" height="100"/><rect class="cls-9" y="600" width="100" height="100"/><rect class="cls-12" x="200" y="600" width="100" height="100"/><rect class="cls-14" x="300" y="600" width="100" height="100"/><rect class="cls-21" x="500" y="600" width="100" height="100"/><rect class="cls-22" x="600" y="600" width="100" height="100"/><rect class="cls-23" x="700" y="600" width="100" height="100"/><rect class="cls-24" x="700" y="500" width="100" height="100"/><rect class="cls-25" x="100" y="700" width="100" height="100"/><rect class="cls-14" x="200" y="700" width="100" height="100"/><rect class="cls-26" x="400" y="700" width="100" height="100"/><rect class="cls-27" x="600" y="700" width="100" height="100"/><rect class="cls-28" x="700" y="700" width="100" height="100"/><rect class="cls-9" x="300" y="300" width="100" height="100"/><rect class="cls-29" x="400" y="200" width="100" height="100"/><rect class="cls-30" x="400" y="400" width="100" height="100"/><rect class="cls-31" x="400" y="500" width="100" height="100"/><rect class="cls-18" x="400" y="300" width="100" height="100"/><rect class="cls-26" x="700" y="400" width="100" height="100"/><rect class="cls-29" x="500" y="100" width="100" height="100"/><rect class="cls-6" x="100" y="98" width="100" height="100"/><rect class="cls-13" x="100" y="200" width="100" height="100"/><rect class="cls-5" y="100" width="100" height="100"/><rect class="cls-6" y="200" width="100" height="100"/></g><rect class="cls-32" x="400" width="100" height="100"/><rect class="cls-32" x="700" width="100" height="100"/><rect class="cls-32" x="300" y="100" width="100" height="100"/><rect class="cls-32" x="600" y="100" width="100" height="100"/><rect class="cls-32" x="200" y="200" width="100" height="400"/><rect class="cls-32" x="500" y="200" width="100" height="400"/><rect class="cls-32" x="100" y="600" width="100" height="100"/><rect class="cls-32" x="400" y="600" width="100" height="100"/><rect class="cls-32" y="700" width="100" height="100"/><rect class="cls-32" x="300" y="700" width="100" height="100"/></g><g id="text_blue"><path class="cls-33" d="M1249.88,372.64a14.07,14.07,0,0,1-6.54-12.45,13.54,13.54,0,0,0-6.54-11.83q-6.54-4.35-18.37-4.36h-42.31Q1151,344,1151,369.12v25.6A25.28,25.28,0,0,0,1176.28,420h59.27q18.32,0,31,12.65l20.85,20.87q12.63,12.66,12.64,31v50q0,18.36-12.64,31l-20.85,20.87q-12.65,12.64-31,12.65h-77.1q-18.33,0-31-12.65l-20.85-20.87q-12.65-12.65-12.64-31v-.2A25.28,25.28,0,0,1,1119.28,509h7.09q12,0,18.72,4.44t6.66,12.06a13.8,13.8,0,0,0,6.66,12.06c4.45,3,10.68,4.44,18.73,4.44h39.58A25.28,25.28,0,0,0,1242,516.72V497.28A25.28,25.28,0,0,0,1216.72,472h-58.9a43.35,43.35,0,0,1-16.43-2.84,56.45,56.45,0,0,1-14.53-9.16l-19-16.41q-7.58-6.31-10.74-13.58a43.21,43.21,0,0,1-3.16-17.36V350.77a41.54,41.54,0,0,1,3.16-16.73,46.77,46.77,0,0,1,10.11-14.21l20.22-20.2q12.63-12.63,31-12.63h77.1q18.95,0,31.59,12.63l20.22,20.2A42.11,42.11,0,0,1,1300,350.77v1A25.28,25.28,0,0,1,1274.72,377h-6.47Q1256.42,377,1249.88,372.64Z"/><path class="cls-4" d="M1359,633.16V312.28q0-25.27,25.35-25.28H1501q18.38,0,31.06,12.64l20.28,20.23a42.1,42.1,0,0,1,12.68,31V469.05a44.19,44.19,0,0,1-12.68,31.61L1532,520.89Q1519.35,531,1501,531h-58.49q-25.5,0-25.49,27.92v74.24q0,22.85-25.49,22.84h-7Q1359,656,1359,633.16ZM1442.28,344A25.28,25.28,0,0,0,1417,369.28v81.89q0,22.83,25.28,22.83h40.44q25.27,0,25.28-22.83V369.28A25.28,25.28,0,0,0,1482.72,344Z"/><path class="cls-28" d="M1773,417.5V315.28A25.28,25.28,0,0,1,1798.28,290h7.44A25.28,25.28,0,0,1,1831,315.28v279a41.88,41.88,0,0,1-12.75,30.93l-21,20.83q-12.75,12-31.23,12H1656.31Q1631,658,1631,633.14v-7q0-26.14,25.31-26.13h92.38q25.3,0,25.31-24.86V525.86q0-25.86-25.36-25.86h-59q-18.39,0-31.07-12l-20.92-20.81Q1625,454.6,1625,436.31v-121A25.28,25.28,0,0,1,1650.28,290h7.44A25.28,25.28,0,0,1,1683,315.28V417.5q0,24.5,25,24.5h40Q1773,442,1773,417.5Z"/><path class="cls-33" d="M1962.26,498q-5.68,0-9.47,5.68T1949,520.05v53.67A25.28,25.28,0,0,1,1923.72,599h-7.44A25.28,25.28,0,0,1,1891,573.72V164.22q0-20.22,25.49-20.22h7q25.48,0,25.49,20.22V342.58q0,10.11,3.47,15.79t9.16,5.68q8.83,0,18.32-12l37.89-48.63Q2030.47,287,2048.16,287h9.47q10.1,0,15.79,4.42a13.79,13.79,0,0,1,5.69,11.37q0,6.31-5.06,14.53l-61.26,90.94a30.49,30.49,0,0,0-5.68,17.69,35.44,35.44,0,0,0,4.42,17.05l67.58,125.68q3.78,7.59,3.79,13.9a14.39,14.39,0,0,1-5.69,12q-5.68,4.41-15.16,4.42h-13.26q-20.83,0-30.32-17.68l-39.15-69.48Q1971.73,498,1962.26,498Z"/><path class="cls-33" d="M2312.7,483h-97.4q-25.31,0-25.3,24.48v8.79q0,25.74,25.3,25.73h97.4q25.29,0,25.3,24.48v6.63q0,25.89-25.23,25.89H2196.71q-18.3,0-30.91-13.9l-20.18-20.21Q2133,552.28,2133,534V350.79q0-18.32,12.62-31l20.18-20.21Q2178.42,287,2196.71,287h77.58q18.3,0,30.91,12.63l20.19,20.21q12.6,12.65,12.61,31V457.27Q2338,483,2312.7,483Zm-97.53-51h39.66q25.15,0,25.17-26V369.28A25.28,25.28,0,0,0,2254.72,344h-39.55Q2190,344,2190,369.32V406Q2190,432,2215.17,432Z"/><path class="cls-33" d="M2553.88,372.64a14.07,14.07,0,0,1-6.54-12.45,13.54,13.54,0,0,0-6.54-11.83q-6.54-4.35-18.37-4.36h-42.15A25.28,25.28,0,0,0,2455,369.28v25.44A25.28,25.28,0,0,0,2480.28,420h59.27q18.32,0,31,12.65l20.85,20.87q12.63,12.66,12.64,31v50q0,18.36-12.64,31l-20.85,20.87q-12.65,12.64-31,12.65h-77.1q-18.33,0-31-12.65l-20.85-20.87q-12.64-12.65-12.64-31v-.2A25.28,25.28,0,0,1,2423.28,509h7.09q12,0,18.72,4.44t6.66,12.06a13.79,13.79,0,0,0,6.67,12.06q6.66,4.44,18.72,4.44h39.58A25.28,25.28,0,0,0,2546,516.72V497.28A25.28,25.28,0,0,0,2520.72,472h-58.9a43.35,43.35,0,0,1-16.43-2.84,56.45,56.45,0,0,1-14.53-9.16l-19-16.41q-7.58-6.31-10.74-13.58a43.21,43.21,0,0,1-3.16-17.36V350.77a41.54,41.54,0,0,1,3.16-16.73,46.77,46.77,0,0,1,10.11-14.21l20.22-20.2q12.63-12.63,31-12.63h77.1q18.94,0,31.59,12.63l20.22,20.2A42.11,42.11,0,0,1,2604,350.77v1A25.28,25.28,0,0,1,2578.72,377h-6.47Q2560.42,377,2553.88,372.64Z"/><rect class="cls-33" x="2664" y="194" width="59" height="59" rx="14"/><rect class="cls-33" x="2665" y="287" width="57" height="312" rx="25.28"/><path class="cls-33" d="M2813.76,600h-6.51Q2782,600,2782,574V351.63q0-19,12.63-31.68l20.2-20.28Q2827.46,287,2845.77,287h39.77a41.5,41.5,0,0,1,16.73,3.17,47,47,0,0,1,14.21,10.14q8.19,8.88,16.41,8.87,6.95,0,13.89-7.61l1.27-1.26a46.68,46.68,0,0,1,14.2-10.14A41.54,41.54,0,0,1,2979,287h37.25a41.5,41.5,0,0,1,16.73,3.17,47,47,0,0,1,14.21,10.14l20.2,20.27Q3080,333.27,3080,351.63V574q0,26-25.25,26h-5.29Q3024,600,3024,574.06V370.28A25.28,25.28,0,0,0,2998.72,345h-12.44A25.28,25.28,0,0,0,2961,370.28V574.06q0,26-25.46,25.94h-6.3Q2904,600,2904,574.06V370.28A25.28,25.28,0,0,0,2878.72,345h-14.44A25.28,25.28,0,0,0,2839,370.28V574.06Q2839,600,2813.76,600Z"/></g></svg>