<svg xmlns="http://www.w3.org/2000/svg" xmlns:xlink="http://www.w3.org/1999/xlink" viewBox="0 0 800 800"><defs><style>.cls-1{fill:none;}.cls-2{clip-path:url(#clip-path);}.cls-3{fill:#b0ae68;}.cls-4{fill:#3477ab;}.cls-5{fill:#3678aa;}.cls-6{fill:#3879a9;}.cls-7{fill:#3c7ba7;}.cls-8{fill:#4980a0;}.cls-9{fill:#50849c;}.cls-10{fill:#3b7aa7;}.cls-11{fill:#4880a0;}.cls-12{fill:#688e8f;}.cls-13{fill:#3c7aa7;}.cls-14{fill:#769487;}.cls-15{fill:#417da4;}.cls-16{fill:#759488;}.cls-17{fill:#839a81;}.cls-18{fill:#5c8996;}.cls-19{fill:#889c7e;}.cls-20{fill:#9da673;}.cls-21{fill:#9ca573;}.cls-22{fill:#b1af68;}.cls-23{fill:#c9b95b;}.cls-24{fill:#afad69;}.cls-25{fill:#698e8f;}.cls-26{fill:#9ba474;}.cls-27{fill:#c8b95c;}.cls-28{fill:#e6c64c;}.cls-29{fill:#51849b;}.cls-30{fill:#698f8e;}.cls-31{fill:#779587;}.cls-32{fill:#fff;}</style><clipPath id="clip-path"><path class="cls-1" d="M800,0V672A128,128,0,0,1,672,800H0V128A128,128,0,0,1,128,0Z"/></clipPath></defs><title>spykesim_logo</title><g id="gradient"><g class="cls-2"><rect class="cls-3" x="500" y="700" width="100" height="100"/><rect class="cls-4" width="100" height="100"/><rect class="cls-1" width="100" height="100"/><rect class="cls-5" x="100" width="100" height="100"/><rect class="cls-6" x="200" width="100" height="100"/><rect class="cls-7" x="300" width="100" height="100"/><rect class="cls-8" x="500" width="100" height="100"/><rect class="cls-9" x="600" width="100" height="100"/><rect class="cls-1" y="100" width="100" height="100"/><rect class="cls-6" x="100" y="100" width="100" height="100"/><rect class="cls-10" x="200" y="100" width="100" height="100"/><rect class="cls-11" x="400" y="100" width="100" height="100"/><rect class="cls-1" x="500" y="100" width="100" height="100"/><rect class="cls-12" x="700" y="100" width="100" height="100"/><rect class="cls-1" y="200" width="100" height="100"/><rect class="cls-13" x="100" y="200" width="100" height="100"/><rect class="cls-11" x="300" y="200" width="100" height="100"/><rect class="cls-1" x="400" y="200" width="100" height="100"/><rect class="cls-12" x="600" y="200" width="100" height="100"/><rect class="cls-14" x="700" y="200" width="100" height="100"/><rect class="cls-7" y="300" width="100" height="100"/><rect class="cls-15" x="100" y="300" width="100" height="100"/><rect class="cls-16" x="600" y="300" width="100" height="100"/><rect class="cls-17" x="700" y="300" width="100" height="100"/><rect class="cls-15" y="400" width="100" height="100"/><rect class="cls-11" x="100" y="400" width="100" height="100"/><rect class="cls-18" x="300" y="400" width="100" height="100"/><rect class="cls-1" x="400" y="400" width="100" height="100"/><rect class="cls-19" x="600" y="400" width="100" height="100"/><rect class="cls-1" x="700" y="400" width="100" height="100"/><rect class="cls-11" y="500" width="100" height="100"/><rect class="cls-9" x="100" y="500" width="100" height="100"/><rect class="cls-12" x="300" y="500" width="100" height="100"/><rect class="cls-1" x="400" y="500" width="100" height="100"/><rect class="cls-20" x="600" y="500" width="100" height="100"/><rect class="cls-1" x="700" y="500" width="100" height="100"/><rect class="cls-9" y="600" width="100" height="100"/><rect class="cls-12" x="200" y="600" width="100" height="100"/><rect class="cls-14" x="300" y="600" width="100" height="100"/><rect class="cls-21" x="500" y="600" width="100" height="100"/><rect class="cls-22" x="600" y="600" width="100" height="100"/><rect class="cls-23" x="700" y="600" width="100" height="100"/><rect class="cls-24" x="700" y="500" width="100" height="100"/><rect class="cls-25" x="100" y="700" width="100" height="100"/><rect class="cls-14" x="200" y="700" width="100" height="100"/><rect class="cls-26" x="400" y="700" width="100" height="100"/><rect class="cls-27" x="600" y="700" width="100" height="100"/><rect class="cls-28" x="700" y="700" width="100" height="100"/><rect class="cls-9" x="300" y="300" width="100" height="100"/><rect class="cls-29" x="400" y="200" width="100" height="100"/><rect class="cls-30" x="400" y="400" width="100" height="100"/><rect class="cls-31" x="400" y="500" width="100" height="100"/><rect class="cls-18" x="400" y="300" width="100" height="100"/><rect class="cls-26" x="700" y="400" width="100" height="100"/><rect class="cls-29" x="500" y="100" width="100" height="100"/><rect class="cls-6" x="100" y="98" width="100" height="100"/><rect class="cls-13" x="100" y="200" width="100" height="100"/><rect class="cls-5" y="100" width="100" height="100"/><rect class="cls-6" y="200" width="100" height="100"/></g></g><g id="whites"><rect class="cls-32" x="400" width="100" height="100"/><rect class="cls-32" x="700" width="100" height="100"/><rect class="cls-32" x="300" y="100" width="100" height="100"/><rect class="cls-32" x="600" y="100" width="100" height="100"/><rect class="cls-32" x="200" y="200" width="100" height="400"/><rect class="cls-32" x="500" y="200" width="100" height="400"/><rect class="cls-32" x="100" y="600" width="100" height="100"/><rect class="cls-32" x="400" y="600" width="100" height="100"/><rect class="cls-32" y="700" width="100" height="100"/><rect class="cls-32" x="300" y="700" width="100" height="100"/></g></svg>